<svg width="120" height="101" viewBox="0 0 120 101" fill="none" xmlns="http://www.w3.org/2000/svg">
<g filter="url(#filter0_d_205_4)">
<rect x="27" y="42" width="84" height="24" rx="4" fill="#A84370"/>
</g>
<path d="M117.586 50H109V61L118.293 51.7071C118.923 51.0771 118.477 50 117.586 50Z" fill="#A84370"/>
<rect x="35" y="52" width="46" height="4" fill="white"/>
<rect x="35" y="52" width="46" height="4" fill="url(#paint0_linear_205_4)"/>
<rect x="85" y="52" width="18" height="4" fill="white"/>
<rect x="85" y="52" width="18" height="4" fill="url(#paint1_linear_205_4)"/>
<g filter="url(#filter1_d_205_4)">
<rect width="84" height="36" rx="4" transform="matrix(-1 0 0 1 99 2)" fill="#F6E5F3"/>
<rect x="23" y="18" width="68" height="4" fill="#B3B3B3"/>
<rect x="23" y="18" width="68" height="4" fill="url(#paint2_linear_205_4)"/>
<rect x="23" y="26" width="68" height="4" fill="#B3B3B3"/>
<rect x="23" y="26" width="68" height="4" fill="url(#paint3_linear_205_4)"/>
<rect x="23" y="10" width="41" height="4" fill="url(#paint4_linear_205_4)"/>
<path d="M8.41421 10H17V21L7.70711 11.7071C7.07714 11.0771 7.52331 10 8.41421 10Z" fill="#F6E5F3"/>
</g>
<g filter="url(#filter2_d_205_4)">
<rect width="84" height="28" rx="4" transform="matrix(-1 0 0 1 99 70)" fill="#F6E5F3"/>
<rect x="23" y="78" width="26" height="4" fill="#B3B3B3"/>
<rect x="23" y="78" width="26" height="4" fill="url(#paint5_linear_205_4)"/>
<rect x="23" y="86" width="46" height="4" fill="#B3B3B3"/>
<rect x="23" y="86" width="46" height="4" fill="url(#paint6_linear_205_4)"/>
<rect x="53" y="78" width="35" height="4" fill="#B3B3B3"/>
<rect x="53" y="78" width="35" height="4" fill="url(#paint7_linear_205_4)"/>
<path d="M8.41421 78H17V89L7.70711 79.7071C7.07714 79.0771 7.52331 78 8.41421 78Z" fill="#F6E5F3"/>
</g>
<defs>
<filter id="filter0_d_205_4" x="25" y="41" width="88" height="28" filterUnits="userSpaceOnUse" color-interpolation-filters="sRGB">
<feFlood flood-opacity="0" result="BackgroundImageFix"/>
<feColorMatrix in="SourceAlpha" type="matrix" values="0 0 0 0 0 0 0 0 0 0 0 0 0 0 0 0 0 0 127 0" result="hardAlpha"/>
<feOffset dy="1"/>
<feGaussianBlur stdDeviation="1"/>
<feColorMatrix type="matrix" values="0 0 0 0 0 0 0 0 0 0.0887805 0 0 0 0 0.35 0 0 0 0.06 0"/>
<feBlend mode="normal" in2="BackgroundImageFix" result="effect1_dropShadow_205_4"/>
<feBlend mode="normal" in="SourceGraphic" in2="effect1_dropShadow_205_4" result="shape"/>
</filter>
<filter id="filter1_d_205_4" x="5.41223" y="1" width="95.5878" height="40" filterUnits="userSpaceOnUse" color-interpolation-filters="sRGB">
<feFlood flood-opacity="0" result="BackgroundImageFix"/>
<feColorMatrix in="SourceAlpha" type="matrix" values="0 0 0 0 0 0 0 0 0 0 0 0 0 0 0 0 0 0 127 0" result="hardAlpha"/>
<feOffset dy="1"/>
<feGaussianBlur stdDeviation="1"/>
<feColorMatrix type="matrix" values="0 0 0 0 0 0 0 0 0 0.0887805 0 0 0 0 0.35 0 0 0 0.06 0"/>
<feBlend mode="normal" in2="BackgroundImageFix" result="effect1_dropShadow_205_4"/>
<feBlend mode="normal" in="SourceGraphic" in2="effect1_dropShadow_205_4" result="shape"/>
</filter>
<filter id="filter2_d_205_4" x="5.41223" y="69" width="95.5878" height="32" filterUnits="userSpaceOnUse" color-interpolation-filters="sRGB">
<feFlood flood-opacity="0" result="BackgroundImageFix"/>
<feColorMatrix in="SourceAlpha" type="matrix" values="0 0 0 0 0 0 0 0 0 0 0 0 0 0 0 0 0 0 127 0" result="hardAlpha"/>
<feOffset dy="1"/>
<feGaussianBlur stdDeviation="1"/>
<feColorMatrix type="matrix" values="0 0 0 0 0 0 0 0 0 0.0887805 0 0 0 0 0.35 0 0 0 0.06 0"/>
<feBlend mode="normal" in2="BackgroundImageFix" result="effect1_dropShadow_205_4"/>
<feBlend mode="normal" in="SourceGraphic" in2="effect1_dropShadow_205_4" result="shape"/>
</filter>
<linearGradient id="paint0_linear_205_4" x1="35" y1="54" x2="81" y2="54" gradientUnits="userSpaceOnUse">
<stop offset="0.151525" stop-color="#E7F3FF"/>
<stop offset="0.378724" stop-color="#92BEE9"/>
<stop offset="0.641484" stop-color="#E7F3FF"/>
<stop offset="1" stop-color="#E7F3FF"/>
</linearGradient>
<linearGradient id="paint1_linear_205_4" x1="85" y1="54" x2="103" y2="54" gradientUnits="userSpaceOnUse">
<stop offset="0.350987" stop-color="#E7F3FF"/>
<stop offset="0.709456" stop-color="#92BEE9"/>
<stop offset="1" stop-color="#E7F3FF"/>
</linearGradient>
<linearGradient id="paint2_linear_205_4" x1="23" y1="20" x2="91" y2="20" gradientUnits="userSpaceOnUse">
<stop stop-color="#B3B3B3"/>
<stop offset="0.645614" stop-color="#B2B2B2"/>
<stop offset="0.854502" stop-color="#E6E6E6"/>
<stop offset="1" stop-color="#B3B3B3"/>
</linearGradient>
<linearGradient id="paint3_linear_205_4" x1="23" y1="28" x2="91" y2="28" gradientUnits="userSpaceOnUse">
<stop stop-color="#B3B3B3"/>
<stop offset="0.254085" stop-color="#B2B2B2"/>
<stop offset="0.4411" stop-color="#E0E0E0"/>
<stop offset="0.730919" stop-color="#B2B2B2"/>
<stop offset="1" stop-color="#B3B3B3"/>
</linearGradient>
<linearGradient id="paint4_linear_205_4" x1="23" y1="12" x2="64" y2="12" gradientUnits="userSpaceOnUse">
<stop stop-color="#B3B3B3"/>
<stop offset="0.254533" stop-color="#E6E6E6"/>
<stop offset="0.495778" stop-color="#B2B2B2"/>
<stop offset="1" stop-color="#B3B3B3"/>
</linearGradient>
<linearGradient id="paint5_linear_205_4" x1="23" y1="80" x2="49" y2="80" gradientUnits="userSpaceOnUse">
<stop stop-color="#B3B3B3"/>
<stop offset="0.457007" stop-color="#B2B2B2"/>
<stop offset="0.71916" stop-color="#E0E0E0"/>
<stop offset="1" stop-color="#B3B3B3"/>
</linearGradient>
<linearGradient id="paint6_linear_205_4" x1="23" y1="88" x2="69" y2="88" gradientUnits="userSpaceOnUse">
<stop stop-color="#B2B2B2"/>
<stop offset="0.240528" stop-color="#E0E0E0"/>
<stop offset="0.53885" stop-color="#B2B2B2"/>
<stop offset="1" stop-color="#B3B3B3"/>
</linearGradient>
<linearGradient id="paint7_linear_205_4" x1="53" y1="80" x2="88" y2="80" gradientUnits="userSpaceOnUse">
<stop stop-color="#B3B3B3"/>
<stop offset="0.406724" stop-color="#B2B2B2"/>
<stop offset="0.668976" stop-color="#E0E0E0"/>
<stop offset="1" stop-color="#B3B3B3"/>
</linearGradient>
</defs>
</svg>
